<svg viewBox="0 0 640 190.385" xmlns="http://www.w3.org/2000/svg" xmlns:xlink="http://www.w3.org/1999/xlink" width="640.000000" height="190.384766" fill="none">
	<defs>
		<linearGradient id="paint_linear_14" x1="86.2094269" x2="143.186905" y1="112.621078" y2="63.8643494" gradientUnits="userSpaceOnUse">
			<stop stop-color="rgb(33,123,254)" offset="0" stop-opacity="1" />
			<stop stop-color="rgb(7,142,251)" offset="0.270000011" stop-opacity="1" />
			<stop stop-color="rgb(161,144,255)" offset="0.77700001" stop-opacity="1" />
			<stop stop-color="rgb(189,153,254)" offset="1" stop-opacity="1" />
		</linearGradient>
		<linearGradient id="paint_linear_15" x1="86.2060242" x2="143.183502" y1="112.621643" y2="63.8649139" gradientUnits="userSpaceOnUse">
			<stop stop-color="rgb(33,123,254)" offset="0" stop-opacity="1" />
			<stop stop-color="rgb(7,142,251)" offset="0.270000011" stop-opacity="1" />
			<stop stop-color="rgb(161,144,255)" offset="0.77700001" stop-opacity="1" />
			<stop stop-color="rgb(189,153,254)" offset="1" stop-opacity="1" />
		</linearGradient>
	</defs>
	<rect id="dark" width="640.000000" height="190.385132" x="0.000000" y="0.000000" />
	<rect id="svgexport-1 1" width="640.000000" height="190.385132" x="0.000000" y="0.000000" />
	<g id="组合 310">
		<path id="矢量 471" d="M79.7388 30.4619L139.215 30.4619C158.006 30.4619 173.239 45.4715 173.239 63.9868L173.239 122.591C173.239 141.107 158.006 156.116 139.215 156.116L79.7388 156.116C60.9476 156.116 45.7148 141.107 45.7148 122.591L45.7148 63.9868C45.7148 45.4715 60.9476 30.4619 79.7388 30.4619Z" fill="rgb(9,0,23)" fill-rule="evenodd" />
		<path id="矢量 471" d="M149.007 90.7847C143.305 91.678 137.87 91.4393 132.522 90.126C127.157 88.7457 122.26 86.487 117.965 83.4164C113.671 80.3463 109.972 76.454 106.976 71.8627C104.049 67.2603 102.132 62.2376 101.226 56.625C101.222 56.5961 101.209 56.5687 101.191 56.5458C101.172 56.5234 101.147 56.5059 101.12 56.4952C101.092 56.4849 101.062 56.4819 101.033 56.4864C101.004 56.4906 100.977 56.5024 100.955 56.5203C100.933 56.5382 100.916 56.5615 100.905 56.5881C100.895 56.6144 100.892 56.6429 100.897 56.6711C101.802 62.2837 101.527 67.6499 100.125 72.9304C98.7926 78.206 96.5347 83.0258 93.4192 87.2572C90.303 91.4888 86.353 95.1335 81.6931 98.0852C77.0227 100.969 71.9248 102.858 66.2227 103.751C66.1373 103.77 66.0741 103.856 66.0878 103.941C66.1023 104.032 66.1888 104.089 66.2752 104.076C71.9716 103.183 77.4177 103.454 82.7827 104.836C88.1362 106.148 93.028 108.372 97.3225 111.443C101.618 114.518 105.282 118.41 108.209 123.018C111.205 127.61 113.155 132.621 114.062 138.24C114.066 138.268 114.078 138.294 114.097 138.316C114.114 138.338 114.138 138.355 114.165 138.365C114.192 138.376 114.221 138.379 114.249 138.374C114.278 138.37 114.305 138.358 114.327 138.34C114.349 138.322 114.366 138.299 114.377 138.272C114.387 138.246 114.39 138.217 114.385 138.189C113.479 132.571 113.721 127.215 115.053 121.946C116.455 116.66 118.747 111.834 121.862 107.597C124.978 103.366 128.928 99.7557 133.604 96.8713C138.264 93.92 143.356 91.9963 149.052 91.1042C149.145 91.0893 149.202 91.0048 149.188 90.9191C149.185 90.8917 149.174 90.8654 149.156 90.8434C149.139 90.8213 149.116 90.8041 149.09 90.7939C149.063 90.7832 149.034 90.7805 149.007 90.7847Z" fill="rgb(255,255,255)" fill-rule="evenodd" />
		<path id="矢量 471" d="M149.007 90.7847C143.305 91.678 137.87 91.4393 132.522 90.126C127.157 88.7457 122.26 86.487 117.965 83.4164C113.671 80.3463 109.972 76.454 106.976 71.8627C104.049 67.2603 102.132 62.2376 101.226 56.625C101.222 56.5961 101.209 56.5687 101.191 56.5458C101.172 56.5234 101.147 56.5059 101.12 56.4952C101.092 56.4849 101.062 56.4819 101.033 56.4864C101.004 56.4906 100.977 56.5024 100.955 56.5203C100.933 56.5382 100.916 56.5615 100.905 56.5881C100.895 56.6144 100.892 56.6429 100.897 56.6711C101.802 62.2837 101.527 67.6499 100.125 72.9304C98.7926 78.206 96.5347 83.0257 93.4192 87.2572C90.303 91.4887 86.353 95.1335 81.6931 98.0852C77.0227 100.969 71.9248 102.858 66.2227 103.751C66.1373 103.77 66.0741 103.856 66.0878 103.941C66.1023 104.032 66.1888 104.089 66.2752 104.075C71.9716 103.183 77.4177 103.454 82.7827 104.836C88.1362 106.148 93.028 108.372 97.3225 111.443C101.618 114.518 105.282 118.41 108.209 123.018C111.205 127.61 113.155 132.621 114.062 138.24C114.066 138.268 114.078 138.294 114.097 138.316C114.114 138.338 114.138 138.355 114.165 138.365C114.192 138.376 114.221 138.379 114.249 138.374C114.278 138.37 114.305 138.358 114.327 138.34C114.349 138.322 114.366 138.299 114.377 138.272C114.387 138.246 114.39 138.217 114.385 138.189C113.479 132.571 113.721 127.215 115.053 121.946C116.455 116.66 118.747 111.834 121.862 107.597C124.978 103.366 128.928 99.7556 133.604 96.8713C138.264 93.92 143.356 91.9963 149.052 91.1042C149.145 91.0893 149.202 91.0048 149.188 90.9191C149.185 90.8917 149.174 90.8654 149.156 90.8433C149.139 90.8213 149.116 90.8041 149.09 90.7938C149.063 90.7832 149.034 90.7805 149.007 90.7847Z" fill="url(#paint_linear_14)" fill-rule="evenodd" />
		<path id="矢量 471" d="M127.758 53.5966C126.345 53.493 125.06 53.1336 123.857 52.5224C122.654 51.8942 121.613 51.082 120.763 50.1099C119.913 49.1374 119.252 48.0015 118.799 46.7378C118.364 45.4755 118.193 44.1687 118.298 42.7774C118.299 42.7701 118.298 42.7629 118.294 42.7564C118.291 42.75 118.286 42.7443 118.281 42.7404C118.275 42.7363 118.267 42.734 118.26 42.7336C118.253 42.7328 118.246 42.7344 118.24 42.737C118.233 42.7401 118.228 42.745 118.224 42.7507C118.22 42.7564 118.218 42.7629 118.217 42.7698C118.112 44.1615 117.738 45.4283 117.101 46.6117C116.48 47.7982 115.665 48.824 114.678 49.6617C113.691 50.4994 112.538 51.1509 111.256 51.5968C109.974 52.0259 108.648 52.1938 107.235 52.0899C107.213 52.0899 107.193 52.1066 107.192 52.128C107.19 52.1504 107.207 52.1687 107.229 52.1706C108.641 52.2742 109.926 52.642 111.129 53.2703C112.333 53.8814 113.375 54.6852 114.225 55.6577C115.075 56.6313 115.728 57.7653 116.163 59.0287C116.616 60.2924 116.795 61.5985 116.69 62.9913C116.689 62.9982 116.69 63.005 116.693 63.0115C116.696 63.0176 116.701 63.0229 116.707 63.0267C116.713 63.0309 116.72 63.0332 116.727 63.0336C116.734 63.034 116.741 63.0328 116.747 63.0298C116.754 63.0267 116.759 63.0222 116.763 63.0165C116.767 63.0107 116.769 63.0039 116.77 62.997C116.875 61.6042 117.24 60.3381 117.86 59.1532C118.498 57.9682 119.322 56.9428 120.309 56.1036C121.296 55.2659 122.446 54.6231 123.729 54.194C125.012 53.7481 126.339 53.5718 127.751 53.6754C127.774 53.6769 127.792 53.6602 127.794 53.6389C127.795 53.632 127.793 53.6251 127.79 53.6191C127.788 53.613 127.783 53.6072 127.778 53.6034C127.772 53.5996 127.765 53.597 127.758 53.5966L127.758 53.5966Z" fill="rgb(255,255,255)" fill-rule="evenodd" />
		<path id="矢量 471" d="M127.755 53.5966C126.341 53.493 125.056 53.1336 123.853 52.5224C122.651 51.8942 121.609 51.082 120.759 50.1099C119.909 49.1374 119.248 48.0015 118.795 46.7378C118.36 45.4755 118.19 44.1687 118.294 42.7774C118.295 42.7701 118.294 42.7629 118.291 42.7564C118.287 42.75 118.282 42.7443 118.277 42.7404C118.271 42.7363 118.263 42.734 118.256 42.7336C118.249 42.7328 118.242 42.7344 118.236 42.737C118.23 42.7401 118.224 42.745 118.22 42.7507C118.216 42.7564 118.214 42.7629 118.213 42.7698C118.108 44.1615 117.734 45.4283 117.097 46.6117C116.476 47.7982 115.661 48.824 114.674 49.6617C113.687 50.4994 112.534 51.1509 111.252 51.5968C109.971 52.0259 108.644 52.1938 107.231 52.0899C107.209 52.0899 107.189 52.1066 107.188 52.128C107.186 52.1504 107.203 52.1687 107.225 52.1706C108.637 52.2742 109.923 52.642 111.126 53.2703C112.329 53.8814 113.371 54.6852 114.221 55.6577C115.071 56.6313 115.724 57.7653 116.159 59.0287C116.612 60.2924 116.791 61.5985 116.686 62.9913C116.685 62.9982 116.686 63.005 116.689 63.0115C116.692 63.0176 116.697 63.0229 116.703 63.0267C116.709 63.0309 116.716 63.0332 116.723 63.0336C116.73 63.034 116.737 63.0328 116.743 63.0298C116.75 63.0267 116.755 63.0222 116.759 63.0165C116.763 63.0107 116.766 63.0039 116.766 62.997C116.871 61.6042 117.236 60.3381 117.856 59.1532C118.494 57.9682 119.318 56.9428 120.305 56.1036C121.292 55.2659 122.443 54.6231 123.725 54.194C125.008 53.7481 126.335 53.5718 127.747 53.6754C127.77 53.6769 127.788 53.6602 127.79 53.6389C127.791 53.632 127.79 53.6251 127.786 53.6191C127.784 53.613 127.779 53.6072 127.774 53.6034C127.768 53.5996 127.761 53.597 127.754 53.5966L127.755 53.5966Z" fill="url(#paint_linear_15)" fill-rule="evenodd" />
		<g id="组合 308">
			<path id="矢量 466" d="M202.635 140.801L214.089 48.674L251.065 48.674C259.365 48.7559 265.735 50.4937 270.175 53.8875C274.616 57.2817 276.836 62.25 276.836 68.7924C276.836 69.4465 276.753 70.6734 276.587 72.4725L276.089 76.8887C275.093 83.84 271.939 88.9922 266.627 92.3453C270.196 93.7359 272.893 95.8621 274.719 98.7243C276.545 101.587 277.458 105.022 277.458 109.029C277.458 110.256 277.417 111.196 277.334 111.85L276.711 117.002C275.716 124.608 272.375 130.476 266.689 134.606C261.004 138.736 253.264 140.801 243.47 140.801L202.635 140.801ZM246.583 87.5613C255.464 87.3976 260.444 83.9219 261.522 77.1339L262.145 72.2273C262.726 65.3575 258.618 61.841 249.82 61.6773L227.161 61.6773L223.924 87.5613L246.583 87.5613ZM245.213 127.552C250.11 127.471 253.97 126.53 256.792 124.731C259.613 122.932 261.315 120.437 261.896 117.248L262.519 111.973C262.933 108.211 261.958 105.328 259.593 103.325C257.228 101.321 253.555 100.278 248.575 100.196L222.43 100.196L218.944 127.552L245.213 127.552ZM333.607 127.307L340.33 72.4725L354.647 72.4725L346.181 140.801L314.932 140.801C297.752 140.801 289.161 133.032 289.161 117.493C289.161 115.612 289.286 113.568 289.535 111.36L294.39 72.4725L308.708 72.4725L303.852 111.728C303.686 112.791 303.603 114.263 303.603 116.144C303.603 120.397 304.62 123.341 306.653 124.977C308.687 126.612 311.986 127.43 316.551 127.43L333.607 127.307ZM371.33 63.272L373.198 48.5514L389.506 48.5514L387.639 63.272L371.33 63.272ZM377.057 140.801L362.74 140.801L371.33 72.4725L385.647 72.4725L377.057 140.801ZM395.856 102.037C398.264 82.3272 408.969 72.4725 427.978 72.4725L444.287 72.4725L447.525 46.2207L461.841 46.2207L450.138 140.801L420.134 140.801C402.953 140.801 394.363 133.032 394.363 117.493C394.363 115.612 394.489 113.568 394.736 111.36L395.856 102.037ZM437.437 127.675L442.668 85.3532L426.359 85.3532C416.98 85.3532 411.628 90.7918 410.298 101.668L409.052 111.728C408.889 113.363 408.805 114.549 408.805 115.285C408.805 123.545 413.121 127.675 421.753 127.675L437.437 127.675Z" fill="rgb(255,255,255)" fill-rule="nonzero" />
		</g>
		<g id="组合 309">
			<path id="矢量 465" d="M458.979 140.782L523.504 45.7959L523.71 45.7959L540.636 140.782L524.594 140.782L521.398 121.493L489.405 121.493L476.472 140.782L458.979 140.782ZM498.373 108.169L519.089 108.169L517.116 96.3987C516.689 93.9382 516.316 91.5493 515.988 89.2315C515.66 86.9137 515.462 84.1912 515.394 81.064C513.851 84.1421 512.361 86.8479 510.921 89.1805C509.481 91.5131 507.919 93.9192 506.228 96.3987L498.373 108.169ZM553.695 140.782L577.028 49.0035L594.285 49.0035L570.948 140.782L553.695 140.782Z" fill="rgb(255,255,255)" fill-rule="nonzero" />
		</g>
	</g>
</svg>
