<svg viewBox="0 0 640 190.477" xmlns="http://www.w3.org/2000/svg" xmlns:xlink="http://www.w3.org/1999/xlink" width="640.000000" height="190.476562" fill="none">
	<defs>
		<linearGradient id="paint_linear_12" x1="86.2094269" x2="143.20993" y1="112.674301" y2="63.9211807" gradientUnits="userSpaceOnUse">
			<stop stop-color="rgb(33,123,254)" offset="0" stop-opacity="1" />
			<stop stop-color="rgb(7,142,251)" offset="0.270000011" stop-opacity="1" />
			<stop stop-color="rgb(161,144,255)" offset="0.77700001" stop-opacity="1" />
			<stop stop-color="rgb(189,153,254)" offset="1" stop-opacity="1" />
		</linearGradient>
		<linearGradient id="paint_linear_13" x1="86.2060242" x2="143.206543" y1="112.675591" y2="63.9224434" gradientUnits="userSpaceOnUse">
			<stop stop-color="rgb(33,123,254)" offset="0" stop-opacity="1" />
			<stop stop-color="rgb(7,142,251)" offset="0.270000011" stop-opacity="1" />
			<stop stop-color="rgb(161,144,255)" offset="0.77700001" stop-opacity="1" />
			<stop stop-color="rgb(189,153,254)" offset="1" stop-opacity="1" />
		</linearGradient>
	</defs>
	<rect id="light" width="640.000000" height="190.476196" x="0.000000" y="0.000000" />
	<rect id="svgexport-1 1" width="640.000000" height="190.476196" x="0.000000" y="0.000000" />
	<g id="组合 310">
		<path id="矢量 471" d="M79.7388 30.4766L139.215 30.4766C158.006 30.4766 173.239 45.4933 173.239 64.0175L173.239 122.65C173.239 141.174 158.006 156.191 139.215 156.191L79.7388 156.191C60.9476 156.191 45.7148 141.174 45.7148 122.65L45.7148 64.0175C45.7148 45.4933 60.9476 30.4766 79.7388 30.4766Z" fill="rgb(9,0,23)" fill-rule="evenodd" />
		<path id="矢量 471" d="M149.007 90.8285C143.305 91.7222 137.87 91.4833 132.522 90.1694C127.157 88.7885 122.26 86.5287 117.965 83.4566C113.671 80.385 109.972 76.4909 106.976 71.8974C104.049 67.2928 102.132 62.2677 101.226 56.6525C101.222 56.6235 101.209 56.5961 101.191 56.5732C101.172 56.5507 101.147 56.5332 101.12 56.5225C101.092 56.5123 101.062 56.5092 101.033 56.5138C101.004 56.518 100.977 56.5298 100.955 56.5477C100.933 56.5656 100.916 56.5888 100.905 56.6155C100.895 56.6418 100.892 56.6704 100.897 56.6985C101.802 62.3138 101.527 67.6826 100.125 72.9656C98.7926 78.2437 96.5347 83.0658 93.4192 87.2993C90.303 91.5328 86.353 95.1793 81.6931 98.1325C77.0227 101.017 71.9248 102.907 66.2227 103.801C66.1373 103.82 66.0741 103.906 66.0878 103.992C66.1023 104.083 66.1888 104.139 66.2752 104.126C71.9716 103.232 77.4177 103.504 82.7827 104.886C88.1362 106.199 93.028 108.424 97.3225 111.496C101.618 114.573 105.282 118.467 108.209 123.078C111.205 127.671 113.155 132.685 114.062 138.306C114.066 138.334 114.078 138.361 114.097 138.383C114.114 138.405 114.138 138.422 114.165 138.432C114.192 138.442 114.221 138.445 114.249 138.441C114.278 138.436 114.305 138.424 114.327 138.406C114.349 138.388 114.366 138.365 114.377 138.339C114.387 138.312 114.39 138.283 114.385 138.256C113.479 132.635 113.721 127.276 115.053 122.004C116.455 116.716 118.747 111.888 121.862 107.649C124.978 103.416 128.928 99.8037 133.604 96.918C138.264 93.9652 143.356 92.0406 149.052 91.1481C149.145 91.1332 149.202 91.0486 149.188 90.9629C149.185 90.9355 149.174 90.9092 149.156 90.8871C149.139 90.865 149.116 90.8479 149.09 90.8376C149.063 90.8269 149.034 90.8243 149.007 90.8285Z" fill="rgb(255,255,255)" fill-rule="evenodd" />
		<path id="矢量 471" d="M149.007 90.8275C143.305 91.7212 137.87 91.4823 132.522 90.1684C127.157 88.7875 122.26 86.5277 117.965 83.4557C113.671 80.384 109.972 76.49 106.976 71.8964C104.049 67.2919 102.132 62.2667 101.226 56.6515C101.222 56.6225 101.209 56.5951 101.191 56.5722C101.172 56.5498 101.147 56.5322 101.12 56.5216C101.092 56.5113 101.062 56.5082 101.033 56.5128C101.004 56.517 100.977 56.5288 100.955 56.5467C100.933 56.5646 100.916 56.5879 100.905 56.6145C100.895 56.6408 100.892 56.6694 100.897 56.6976C101.802 62.3128 101.527 67.6816 100.125 72.9646C98.7926 78.2427 96.5347 83.0648 93.4192 87.2983C90.303 91.5319 86.353 95.1783 81.6931 98.1315C77.0227 101.016 71.9248 102.906 66.2227 103.8C66.1373 103.819 66.0741 103.905 66.0878 103.991C66.1023 104.082 66.1888 104.138 66.2752 104.125C71.9716 103.231 77.4177 103.503 82.7827 104.885C88.1362 106.198 93.028 108.423 97.3225 111.495C101.618 114.572 105.282 118.466 108.209 123.077C111.205 127.67 113.155 132.684 114.062 138.305C114.066 138.333 114.078 138.36 114.097 138.382C114.114 138.404 114.138 138.421 114.165 138.431C114.192 138.441 114.221 138.444 114.249 138.44C114.278 138.435 114.305 138.423 114.327 138.405C114.349 138.387 114.366 138.364 114.377 138.338C114.387 138.311 114.39 138.282 114.385 138.255C113.479 132.634 113.721 127.275 115.053 122.003C116.455 116.715 118.747 111.887 121.862 107.648C124.978 103.415 128.928 99.8027 133.604 96.917C138.264 93.9642 143.356 92.0397 149.052 91.1471C149.145 91.1322 149.202 91.0477 149.188 90.962C149.185 90.9345 149.174 90.9082 149.156 90.8861C149.139 90.8641 149.116 90.8469 149.09 90.8366C149.063 90.826 149.034 90.8233 149.007 90.8275Z" fill="url(#paint_linear_12)" fill-rule="evenodd" />
		<path id="矢量 471" d="M127.758 53.6223C126.345 53.5187 125.06 53.1591 123.857 52.5476C122.654 51.9191 121.613 51.1065 120.763 50.1339C119.913 49.161 119.252 48.0246 118.799 46.7602C118.364 45.4973 118.193 44.1899 118.298 42.7979C118.299 42.7907 118.298 42.7834 118.294 42.777C118.291 42.7705 118.286 42.7648 118.281 42.761C118.275 42.7568 118.267 42.7545 118.26 42.7541C118.253 42.7533 118.246 42.7549 118.24 42.7575C118.233 42.7606 118.228 42.7655 118.224 42.7712C118.22 42.777 118.218 42.7834 118.217 42.7903C118.112 44.1827 117.738 45.4501 117.101 46.6341C116.48 47.8212 115.665 48.8474 114.678 49.6855C113.691 50.5236 112.538 51.1754 111.256 51.6215C109.974 52.0509 108.648 52.2189 107.235 52.1149C107.213 52.1149 107.193 52.1316 107.192 52.153C107.19 52.1754 107.207 52.1937 107.229 52.1956C108.641 52.2992 109.926 52.6672 111.129 53.2958C112.333 53.9072 113.375 54.7114 114.225 55.6844C115.075 56.6585 115.728 57.793 116.163 59.057C116.616 60.3213 116.795 61.628 116.69 63.0215C116.689 63.0284 116.69 63.0352 116.693 63.0417C116.696 63.0478 116.701 63.0531 116.707 63.057C116.713 63.0611 116.72 63.0634 116.727 63.0638C116.734 63.0642 116.741 63.0631 116.747 63.06C116.754 63.057 116.759 63.0524 116.763 63.0467C116.767 63.041 116.769 63.0341 116.77 63.0272C116.875 61.6337 117.24 60.3671 117.86 59.1815C118.498 57.996 119.322 56.9701 120.309 56.1305C121.296 55.2924 122.446 54.6493 123.729 54.22C125.012 53.7739 126.339 53.5975 127.751 53.7011C127.774 53.7027 127.792 53.6859 127.794 53.6646C127.795 53.6577 127.793 53.6509 127.79 53.6448C127.788 53.6387 127.783 53.633 127.778 53.6291C127.772 53.6253 127.765 53.6227 127.758 53.6223L127.758 53.6223Z" fill="rgb(255,255,255)" fill-rule="evenodd" />
		<path id="矢量 471" d="M127.755 53.6223C126.341 53.5187 125.056 53.1591 123.853 52.5476C122.651 51.9191 121.609 51.1065 120.759 50.1339C119.909 49.161 119.248 48.0246 118.795 46.7602C118.36 45.4973 118.19 44.1899 118.294 42.7979C118.295 42.7907 118.294 42.7834 118.291 42.777C118.287 42.7705 118.282 42.7648 118.277 42.761C118.271 42.7568 118.263 42.7545 118.256 42.7541C118.249 42.7533 118.242 42.7549 118.236 42.7575C118.23 42.7606 118.224 42.7655 118.22 42.7712C118.216 42.777 118.214 42.7834 118.213 42.7903C118.108 44.1827 117.734 45.4501 117.097 46.6341C116.476 47.8212 115.661 48.8474 114.674 49.6855C113.687 50.5236 112.534 51.1754 111.252 51.6215C109.971 52.0509 108.644 52.2189 107.231 52.1149C107.209 52.1149 107.189 52.1316 107.188 52.153C107.186 52.1754 107.203 52.1937 107.225 52.1956C108.637 52.2992 109.923 52.6672 111.126 53.2958C112.329 53.9072 113.371 54.7114 114.221 55.6844C115.071 56.6585 115.724 57.793 116.159 59.057C116.612 60.3213 116.791 61.628 116.686 63.0215C116.685 63.0284 116.686 63.0352 116.689 63.0417C116.692 63.0478 116.697 63.0531 116.703 63.057C116.709 63.0611 116.716 63.0634 116.723 63.0638C116.73 63.0642 116.737 63.0631 116.743 63.06C116.75 63.057 116.755 63.0524 116.759 63.0467C116.763 63.041 116.766 63.0341 116.766 63.0272C116.871 61.6337 117.236 60.3671 117.856 59.1815C118.494 57.996 119.318 56.9701 120.305 56.1305C121.292 55.2924 122.443 54.6493 123.725 54.22C125.008 53.7739 126.335 53.5975 127.747 53.7011C127.77 53.7027 127.788 53.6859 127.79 53.6646C127.791 53.6577 127.79 53.6509 127.787 53.6448C127.784 53.6387 127.779 53.633 127.774 53.6291C127.768 53.6253 127.761 53.6227 127.754 53.6223L127.755 53.6223Z" fill="url(#paint_linear_13)" fill-rule="evenodd" />
		<g id="组合 308">
			<path id="矢量 466" d="M202.635 140.868L214.088 48.6967L251.065 48.6967C259.365 48.7786 265.735 50.5172 270.175 53.9127C274.616 57.3085 276.836 62.2791 276.836 68.8247C276.836 69.4791 276.753 70.7066 276.587 72.5066L276.089 76.9249C275.093 83.8795 271.939 89.0342 266.627 92.3889C270.196 93.7801 272.893 95.9073 274.719 98.771C276.545 101.635 277.458 105.071 277.458 109.08C277.458 110.308 277.417 111.249 277.334 111.903L276.711 117.058C275.716 124.667 272.375 130.538 266.689 134.67C261.004 138.802 253.264 140.868 243.47 140.868L202.635 140.868ZM246.583 87.6026C255.464 87.4388 260.444 83.9614 261.522 77.1702L262.145 72.2612C262.726 65.3881 258.618 61.87 249.82 61.7062L227.161 61.7062L223.924 87.6026L246.583 87.6026ZM245.213 127.613C250.11 127.531 253.97 126.59 256.792 124.79C259.613 122.99 261.315 120.494 261.896 117.304L262.519 112.026C262.933 108.262 261.958 105.378 259.593 103.374C257.228 101.369 253.555 100.326 248.575 100.244L222.43 100.244L218.944 127.613L245.213 127.613ZM333.607 127.368L340.33 72.5066L354.647 72.5066L346.181 140.868L314.932 140.868C297.752 140.868 289.161 133.095 289.161 117.549C289.161 115.667 289.286 113.622 289.535 111.412L294.39 72.5066L308.708 72.5066L303.852 111.78C303.686 112.844 303.603 114.317 303.603 116.199C303.603 120.454 304.62 123.399 306.653 125.036C308.687 126.672 311.986 127.49 316.551 127.49L333.607 127.368ZM371.33 63.3016L373.198 48.574L389.506 48.574L387.639 63.3016L371.33 63.3016ZM377.057 140.868L362.74 140.868L371.33 72.5066L385.647 72.5066L377.057 140.868ZM395.856 102.085C398.264 82.366 408.968 72.5066 427.978 72.5066L444.287 72.5066L447.525 46.2422L461.841 46.2422L450.138 140.868L420.134 140.868C402.953 140.868 394.363 133.095 394.363 117.549C394.363 115.667 394.488 113.622 394.736 111.412L395.856 102.085ZM437.437 127.736L442.668 85.3934L426.359 85.3934C416.98 85.3934 411.628 90.8346 410.298 101.716L409.052 111.78C408.888 113.417 408.805 114.603 408.805 115.34C408.805 123.604 413.121 127.736 421.753 127.736L437.437 127.736Z" fill="rgb(43,53,71)" fill-rule="nonzero" />
		</g>
		<g id="组合 309">
			<path id="矢量 465" d="M458.979 140.85L523.504 45.8184L523.71 45.8184L540.636 140.85L524.594 140.85L521.398 121.551L489.405 121.551L476.472 140.85L458.979 140.85ZM498.373 108.221L519.089 108.221L517.116 96.4454C516.689 93.9837 516.316 91.5936 515.988 89.2747C515.66 86.9559 515.462 84.2321 515.394 81.1033C513.851 84.1829 512.361 86.89 510.921 89.2237C509.481 91.5574 507.919 93.9646 506.228 96.4454L498.373 108.221ZM553.695 140.85L577.028 49.0275L594.285 49.0275L570.948 140.85L553.695 140.85Z" fill="rgb(0,57,255)" fill-rule="nonzero" />
		</g>
	</g>
</svg>
