<svg viewBox="0 0 1200 640" xmlns="http://www.w3.org/2000/svg" xmlns:xlink="http://www.w3.org/1999/xlink" width="1200.000000" height="640.000000" fill="none" customFrame="#000000">
	<defs>
		<linearGradient id="paint_linear_6" x1="792.264832" x2="927.97406" y1="366.157196" y2="251.731262" gradientUnits="userSpaceOnUse">
			<stop stop-color="rgb(33,123,254)" offset="0" stop-opacity="1" />
			<stop stop-color="rgb(7,142,251)" offset="0.270000011" stop-opacity="1" />
			<stop stop-color="rgb(161,144,255)" offset="0.77700001" stop-opacity="1" />
			<stop stop-color="rgb(189,153,254)" offset="1" stop-opacity="1" />
		</linearGradient>
		<linearGradient id="paint_linear_7" x1="792.264832" x2="927.97406" y1="366.157196" y2="251.731262" gradientUnits="userSpaceOnUse">
			<stop stop-color="rgb(33,123,254)" offset="0" stop-opacity="1" />
			<stop stop-color="rgb(7,142,251)" offset="0.270000011" stop-opacity="1" />
			<stop stop-color="rgb(161,144,255)" offset="0.77700001" stop-opacity="1" />
			<stop stop-color="rgb(189,153,254)" offset="1" stop-opacity="1" />
		</linearGradient>
	</defs>
	<g id="组合 321">
		<rect id="image 33" width="1200.000000" height="640.000000" x="0.000000" y="0.000000" rx="57.000000" fill="rgb(255,255,255)" />
		<g id="组合 320">
			<path id="矢量 471" d="M766.656 170L927.344 170C965.821 170 997 201.188 997 239.656L997 400.344C997 438.812 965.821 470 927.344 470L766.656 470C728.179 470 697 438.812 697 400.344L697 239.656C697 201.188 728.179 170 766.656 170Z" fill="rgb(9,0,23)" fill-rule="evenodd" />
			<path id="矢量 471" d="M933.754 307.163C921.574 309.045 909.979 308.548 898.562 305.778C887.11 302.866 876.67 298.098 867.508 291.626C858.328 285.154 850.445 276.951 844.053 267.266C837.803 257.562 833.719 246.971 831.783 235.146C831.766 235.083 831.748 235.021 831.695 234.977C831.659 234.924 831.606 234.888 831.553 234.87C831.499 234.844 831.428 234.835 831.357 234.853C831.304 234.862 831.251 234.879 831.197 234.924C831.144 234.959 831.109 235.004 831.091 235.066C831.073 235.119 831.073 235.181 831.073 235.234C833.009 247.069 832.423 258.388 829.422 269.521C826.581 280.645 821.769 290.801 815.111 299.723C808.47 308.645 800.036 316.333 790.093 322.557C780.132 328.638 769.248 332.615 757.085 334.506C756.89 334.542 756.766 334.719 756.783 334.906C756.819 335.092 756.996 335.217 757.192 335.19C769.337 333.308 780.967 333.876 792.419 336.788C803.836 339.558 814.276 344.245 823.438 350.717C832.618 357.207 840.43 365.41 846.68 375.122C853.072 384.808 857.227 395.373 859.163 407.216C859.18 407.278 859.198 407.331 859.251 407.376C859.287 407.429 859.34 407.464 859.393 407.482C859.447 407.5 859.518 407.509 859.571 407.5C859.624 407.491 859.695 407.464 859.731 407.429C859.784 407.393 859.82 407.34 859.837 407.287C859.873 407.234 859.873 407.172 859.855 407.109C857.92 395.266 858.435 383.974 861.293 372.868C864.276 361.717 869.177 351.543 875.818 342.612C882.458 333.69 890.892 326.081 900.871 320C910.814 313.777 921.68 309.719 933.843 307.837C934.038 307.802 934.163 307.624 934.127 307.447C934.127 307.393 934.109 307.331 934.074 307.287C934.021 307.243 933.985 307.207 933.932 307.18C933.861 307.163 933.807 307.154 933.754 307.163L933.754 307.163Z" fill="rgb(9,0,23)" fill-rule="evenodd" />
			<path id="矢量 471" d="M933.754 307.163C921.574 309.045 909.979 308.548 898.562 305.778C887.11 302.866 876.67 298.098 867.508 291.626C858.328 285.154 850.445 276.951 844.053 267.266C837.803 257.562 833.719 246.971 831.783 235.146C831.766 235.083 831.748 235.021 831.695 234.977C831.659 234.924 831.606 234.888 831.553 234.87C831.499 234.844 831.428 234.835 831.357 234.853C831.304 234.862 831.251 234.879 831.197 234.924C831.144 234.959 831.109 235.004 831.091 235.066C831.073 235.119 831.073 235.181 831.073 235.234C833.009 247.069 832.423 258.388 829.422 269.521C826.581 280.645 821.769 290.801 815.111 299.723C808.47 308.645 800.036 316.333 790.093 322.557C780.132 328.638 769.248 332.615 757.085 334.506C756.89 334.542 756.766 334.719 756.783 334.906C756.819 335.092 756.996 335.217 757.192 335.19C769.337 333.308 780.967 333.876 792.419 336.788C803.836 339.558 814.276 344.245 823.438 350.717C832.618 357.207 840.43 365.41 846.68 375.122C853.072 384.808 857.227 395.373 859.163 407.216C859.18 407.278 859.198 407.331 859.251 407.376C859.287 407.429 859.34 407.464 859.393 407.482C859.447 407.5 859.518 407.509 859.571 407.5C859.624 407.491 859.695 407.464 859.731 407.429C859.784 407.393 859.82 407.34 859.837 407.287C859.873 407.234 859.873 407.172 859.855 407.109C857.92 395.266 858.435 383.974 861.293 372.868C864.276 361.717 869.177 351.543 875.818 342.612C882.458 333.69 890.892 326.081 900.871 320C910.814 313.777 921.68 309.719 933.843 307.837C934.038 307.802 934.163 307.624 934.127 307.447C934.127 307.393 934.109 307.331 934.074 307.287C934.021 307.243 933.985 307.207 933.932 307.18C933.861 307.163 933.807 307.154 933.754 307.163L933.754 307.163Z" fill="url(#paint_linear_6)" fill-rule="evenodd" />
			<path id="矢量 471" d="M888.388 228.754C885.37 228.54 882.618 227.777 880.061 226.49C877.487 225.167 875.267 223.453 873.456 221.403C871.645 219.352 870.224 216.964 869.266 214.292C868.342 211.637 867.969 208.876 868.2 205.946C868.2 205.929 868.2 205.911 868.182 205.902C868.182 205.884 868.165 205.875 868.165 205.866C868.147 205.858 868.129 205.858 868.112 205.849C868.094 205.849 868.094 205.858 868.076 205.858C868.058 205.866 868.04 205.875 868.04 205.893C868.023 205.902 868.023 205.911 868.023 205.929C867.792 208.867 867.011 211.531 865.643 214.034C864.312 216.529 862.572 218.695 860.477 220.462C858.364 222.228 855.913 223.596 853.161 224.537C850.427 225.442 847.604 225.797 844.585 225.584C844.532 225.575 844.496 225.62 844.496 225.664C844.496 225.708 844.532 225.744 844.568 225.753C847.586 225.966 850.338 226.747 852.895 228.07C855.469 229.357 857.689 231.053 859.5 233.104C861.311 235.154 862.714 237.543 863.637 240.206C864.614 242.878 864.987 245.63 864.756 248.56C864.756 248.578 864.773 248.596 864.773 248.604C864.773 248.622 864.791 248.631 864.809 248.64C864.809 248.649 864.827 248.649 864.844 248.658C864.862 248.658 864.88 248.649 864.88 248.649C864.898 248.64 864.915 248.631 864.915 248.613C864.933 248.604 864.933 248.587 864.933 248.578C865.164 245.639 865.945 242.967 867.259 240.472C868.626 237.978 870.384 235.811 872.479 234.045C874.592 232.278 877.043 230.92 879.795 230.014C882.529 229.073 885.352 228.7 888.371 228.922C888.424 228.922 888.46 228.887 888.46 228.842C888.46 228.833 888.46 228.816 888.46 228.807C888.442 228.789 888.442 228.78 888.424 228.771C888.406 228.762 888.406 228.754 888.388 228.754L888.388 228.754Z" fill="rgb(9,0,23)" fill-rule="evenodd" />
			<path id="矢量 471" d="M888.388 228.754C885.37 228.54 882.618 227.777 880.061 226.49C877.487 225.167 875.267 223.453 873.456 221.403C871.645 219.352 870.224 216.964 869.266 214.292C868.342 211.637 867.969 208.876 868.2 205.946C868.2 205.929 868.2 205.911 868.182 205.902C868.182 205.884 868.165 205.875 868.165 205.866C868.147 205.858 868.129 205.858 868.112 205.849C868.094 205.849 868.094 205.858 868.076 205.858C868.058 205.866 868.04 205.875 868.04 205.893C868.023 205.902 868.023 205.911 868.023 205.929C867.792 208.867 867.011 211.531 865.643 214.034C864.312 216.529 862.572 218.695 860.477 220.462C858.364 222.228 855.913 223.596 853.161 224.537C850.427 225.442 847.604 225.797 844.585 225.584C844.532 225.575 844.496 225.62 844.496 225.664C844.496 225.708 844.532 225.744 844.568 225.753C847.586 225.966 850.338 226.747 852.895 228.07C855.469 229.357 857.689 231.053 859.5 233.104C861.311 235.154 862.714 237.543 863.637 240.206C864.614 242.878 864.987 245.63 864.756 248.56C864.756 248.578 864.773 248.596 864.773 248.604C864.773 248.622 864.791 248.631 864.809 248.64C864.809 248.649 864.827 248.649 864.844 248.658C864.862 248.658 864.88 248.649 864.88 248.649C864.898 248.64 864.915 248.631 864.915 248.613C864.933 248.604 864.933 248.587 864.933 248.578C865.164 245.639 865.945 242.967 867.259 240.472C868.626 237.978 870.384 235.811 872.479 234.045C874.592 232.278 877.043 230.92 879.795 230.014C882.529 229.073 885.352 228.7 888.371 228.922C888.424 228.922 888.46 228.887 888.46 228.842C888.46 228.833 888.46 228.816 888.46 228.807C888.442 228.789 888.442 228.78 888.424 228.771C888.406 228.762 888.406 228.754 888.388 228.754L888.388 228.754Z" fill="url(#paint_linear_7)" fill-rule="evenodd" />
			<g id="组合 312">
				<path id="矢量 471" d="M302.041 170L441.959 170C486.164 170 522 205.835 522 250.041L522 389.959C522 434.165 486.164 470 441.959 470L302.041 470C257.835 470 222 434.165 222 389.959L222 250.041C222 205.835 257.835 170 302.041 170Z" fill="rgb(77,83,232)" fill-rule="evenodd" />
				<path id="矢量 471" d="M464.996 314.019C451.583 316.152 438.797 315.582 426.215 312.446C413.594 309.151 402.074 303.758 391.971 296.427C381.869 289.097 373.166 279.805 366.119 268.843C359.234 257.855 354.725 245.863 352.594 232.463C352.583 232.394 352.553 232.328 352.51 232.274C352.466 232.22 352.407 232.178 352.343 232.153C352.277 232.128 352.205 232.121 352.138 232.132C352.071 232.142 352.007 232.17 351.955 232.213C351.903 232.256 351.862 232.311 351.838 232.375C351.815 232.437 351.808 232.506 351.818 232.573C353.949 245.973 353.3 258.785 350.002 271.392C346.868 283.987 341.556 295.495 334.227 305.597C326.896 315.7 317.604 324.402 306.642 331.449C295.654 338.334 283.662 342.844 270.247 344.977C270.047 345.023 269.898 345.227 269.93 345.431C269.964 345.648 270.168 345.783 270.371 345.751C283.772 343.619 296.584 344.268 309.205 347.566C321.799 350.698 333.307 356.009 343.409 363.34C353.515 370.683 362.133 379.976 369.019 390.977C376.067 401.939 380.656 413.905 382.789 427.318C382.799 427.386 382.827 427.448 382.87 427.501C382.912 427.554 382.968 427.594 383.032 427.618C383.094 427.643 383.162 427.65 383.23 427.639C383.296 427.629 383.36 427.6 383.412 427.557C383.464 427.515 383.505 427.459 383.529 427.396C383.553 427.333 383.56 427.264 383.55 427.197C381.417 413.784 381.986 400.997 385.121 388.416C388.419 375.796 393.811 364.275 401.138 354.158C408.469 344.056 417.761 335.437 428.762 328.551C439.724 321.505 451.703 316.912 465.103 314.782C465.32 314.746 465.456 314.545 465.423 314.34C465.414 314.275 465.388 314.212 465.348 314.159C465.307 314.106 465.254 314.066 465.191 314.041C465.129 314.016 465.061 314.009 464.996 314.019Z" fill="rgb(255,255,255)" fill-rule="evenodd" />
				<path id="矢量 471" d="M414.999 225.233C411.673 224.986 408.65 224.127 405.821 222.668C402.992 221.168 400.542 219.229 398.542 216.908C396.543 214.586 394.988 211.875 393.922 208.857C392.898 205.844 392.497 202.724 392.744 199.402C392.746 199.385 392.743 199.367 392.735 199.352C392.728 199.336 392.715 199.323 392.703 199.314C392.688 199.304 392.671 199.298 392.653 199.297C392.638 199.296 392.621 199.299 392.606 199.306C392.592 199.313 392.578 199.325 392.569 199.338C392.559 199.352 392.555 199.367 392.553 199.384C392.305 202.706 391.426 205.731 389.928 208.556C388.467 211.389 386.549 213.838 384.227 215.838C381.905 217.838 379.194 219.394 376.177 220.458C373.162 221.483 370.042 221.884 366.717 221.636C366.666 221.636 366.619 221.676 366.616 221.726C366.611 221.78 366.651 221.824 366.703 221.828C370.025 222.076 373.049 222.954 375.879 224.454C378.711 225.913 381.162 227.832 383.162 230.154C385.161 232.478 386.696 235.186 387.722 238.202C388.785 241.219 389.207 244.337 388.96 247.663C388.958 247.679 388.961 247.696 388.968 247.711C388.975 247.726 388.986 247.738 389.001 247.747C389.014 247.757 389.03 247.763 389.047 247.764C389.064 247.765 389.08 247.762 389.095 247.755C389.111 247.747 389.122 247.736 389.132 247.723C389.141 247.709 389.147 247.693 389.148 247.676C389.396 244.351 390.253 241.328 391.713 238.499C393.213 235.67 395.152 233.222 397.473 231.218C399.796 229.218 402.502 227.684 405.52 226.659C408.537 225.595 411.659 225.174 414.981 225.421C415.035 225.425 415.079 225.385 415.082 225.334C415.084 225.317 415.081 225.301 415.074 225.286C415.068 225.272 415.057 225.258 415.045 225.249C415.03 225.24 415.014 225.234 414.998 225.233L414.999 225.233Z" fill="rgb(255,255,255)" fill-rule="evenodd" />
			</g>
		</g>
	</g>
</svg>
