<svg viewBox="0 0 1200 640" xmlns="http://www.w3.org/2000/svg" xmlns:xlink="http://www.w3.org/1999/xlink" width="1200.000000" height="640.000000" fill="none" customFrame="#000000">
	<g id="组合 320">
		<rect id="image 32" width="1200.000000" height="640.000000" x="0.000000" y="0.000000" rx="57.000000" fill="rgb(255,255,255)" />
		<g id="组合 319">
			<g id="组合 315">
				<path id="矢量 477" d="M816.619 231.241C817.411 222.414 813.268 218 804.21 218L803.327 218C794.269 218 789.353 222.414 788.562 231.241L788.249 234.746C788.236 234.891 788.224 235.035 788.214 235.178L731.876 235.178C724.034 235.178 717.921 237.169 713.558 241.15C709.232 245.141 706.728 250.879 706.047 258.382L705.329 266.507C704.574 274.911 708.514 279.109 717.13 279.109L718.013 279.109C726.593 279.109 731.25 274.911 732.005 266.507L732.521 260.805L867.395 260.805L866.879 266.507C866.124 274.911 870.046 279.109 878.625 279.109L879.509 279.109C888.125 279.109 892.801 274.911 893.556 266.507L894.274 258.382C894.955 250.734 893.427 244.96 889.689 241.042C885.989 237.133 880.3 235.178 872.605 235.178L816.264 235.178C816.279 235.035 816.293 234.891 816.306 234.746L816.619 231.241ZM583.25 220.423C591.885 219.847 596.119 223.666 595.972 231.89L595.843 266.723C595.824 275.128 591.424 279.686 582.624 280.406L581.685 280.406C573.051 281.01 568.798 277.19 568.909 268.93L569.093 234.097C569.111 225.729 573.511 221.171 582.311 220.423L583.25 220.423ZM642.715 243.357C649.877 247.203 651.11 252.779 646.416 260.103C625.852 290.684 601.292 318.951 572.719 344.902C562.546 354.154 552.043 362.898 541.21 371.133L539.029 395.517L600.335 395.517L601.495 382.537Q602.061 376.286 605.481 373.085Q609.07 369.728 615.8 369.728L616.683 369.728C625.447 369.728 629.442 373.997 628.668 382.537L627.288 398.156C626.588 405.984 624.01 411.902 619.555 415.92C615.155 419.973 608.877 422 600.74 422L533.966 422C525.976 422 520.084 420.009 516.273 416.028C512.499 412.082 510.971 406.128 511.689 398.156L512.293 391.405C501.598 398.301 490.614 404.749 479.342 410.749C471.444 414.704 465.866 413.01 462.571 405.687L462.202 404.777C459.11 397.418 461.429 391.689 469.162 387.599C485.217 379.106 500.54 369.762 515.137 359.568L524.337 256.608C525.092 248.059 529.842 243.789 538.568 243.789L539.507 243.789C548.234 243.789 552.21 248.059 551.456 256.608L544.235 337.317C549.333 333.056 554.33 328.675 559.225 324.175C586.177 299.413 607.754 274.083 623.955 248.203C628.65 240.844 634.615 239.087 641.813 242.925L642.715 243.357ZM490.407 261.661C498.986 261.661 502.908 265.841 502.153 274.209L500.754 289.873C499.962 298.854 498.636 308.817 496.814 319.761C495.028 330.706 493.021 341.047 490.794 350.775C488.676 359.134 483.411 362.431 474.998 360.675L474.114 360.675C465.94 358.918 462.921 353.847 465.038 345.443Q468.241 332.458 470.561 317.608C472.144 307.664 473.322 298.422 474.077 289.873L475.476 274.209C476.231 265.841 480.889 261.661 489.468 261.661L490.407 261.661ZM894.715 296.719C895.452 288.495 891.586 284.388 883.117 284.388L712.564 284.388C704.095 284.388 699.493 288.495 698.756 296.719L698.683 297.629C697.946 305.853 701.812 309.961 710.281 309.961L789.427 309.961L781.98 393.301C778.453 392.939 775.216 392.437 772.269 391.797C765.549 390.329 759.492 387.653 754.098 383.78C748.74 379.861 743.751 374.232 739.093 366.872C738.277 365.44 737.39 364.238 736.434 363.265C739.823 356.288 742.967 349.18 745.868 341.939C748.869 333.723 746.31 328.643 738.173 326.706L737.326 326.274C729.207 324.373 723.573 327.382 720.444 335.318Q711.668 356.635 699.927 376.168Q692.712 388.17 684.378 399.498C679.205 406.714 679.886 412.596 686.44 417.163L687.287 417.586C694.117 422.288 700.119 421.108 705.274 414.037C710.551 407.618 716.204 399.414 722.221 389.416C726.775 395.185 731.632 399.982 736.792 403.804C744.672 409.614 753.288 413.695 762.658 416.028C772.011 418.397 782.726 419.577 794.803 419.577L877.815 419.577C886.247 419.577 890.831 415.451 891.586 407.2L891.659 406.335C892.396 398.111 888.548 394.004 880.116 394.004L809.091 394.004L811.968 361.81L868.076 361.81C876.508 361.81 881.092 357.684 881.828 349.424L881.902 348.568C882.638 340.308 878.791 336.183 870.359 336.183L814.258 336.183L816.601 309.961L880.834 309.961C889.303 309.961 893.905 305.853 894.642 297.629L894.715 296.719ZM655.713 287.666C664.292 287.666 668.214 291.864 667.459 300.268L666.06 315.933C665.323 324.157 664.881 333.273 664.716 343.29C664.587 353.261 664.808 362.738 665.378 371.718C665.986 380.078 662.009 385.068 653.43 386.68L652.491 386.68C643.765 388.293 639.089 384.924 638.481 376.565C637.984 367.016 637.8 356.765 637.929 345.821C638.094 334.84 638.591 324.878 639.383 315.933L640.782 300.268C641.537 291.864 646.195 287.666 654.774 287.666L655.713 287.666Z" fill="rgb(0,0,0)" fill-rule="evenodd" />
				<g id="组合 312">
					<path id="矢量 471" d="M161.992 167L308.817 167C355.205 167 392.81 203.552 392.81 248.642L392.81 391.358C392.81 436.448 355.205 473 308.817 473L161.992 473C115.604 473 78 436.448 78 391.358L78 248.642C78 203.552 115.604 167 161.992 167Z" fill="rgb(77,83,232)" fill-rule="evenodd" />
					<path id="矢量 471" d="M332.991 313.899C318.915 316.075 305.498 315.493 292.296 312.295C279.052 308.934 266.963 303.433 256.361 295.956C245.761 288.479 236.628 279 229.233 267.819C222.008 256.611 217.276 244.38 215.04 230.712C215.028 230.641 214.997 230.574 214.952 230.519C214.906 230.464 214.844 230.421 214.777 230.396C214.708 230.37 214.632 230.363 214.562 230.374C214.491 230.384 214.425 230.413 214.37 230.457C214.315 230.5 214.272 230.557 214.247 230.622C214.222 230.686 214.215 230.755 214.226 230.824C216.462 244.492 215.781 257.56 212.32 270.419C209.031 283.267 203.457 295.004 195.767 305.309C188.074 315.614 178.323 324.49 166.819 331.678C155.29 338.7 142.705 343.3 128.629 345.477C128.418 345.523 128.262 345.732 128.296 345.939C128.331 346.161 128.545 346.298 128.758 346.266C142.821 344.091 156.265 344.753 169.509 348.116C182.725 351.312 194.801 356.729 205.402 364.207C216.006 371.696 225.051 381.175 232.276 392.397C239.672 403.578 244.487 415.782 246.725 429.464C246.737 429.533 246.766 429.597 246.811 429.651C246.855 429.704 246.914 429.745 246.98 429.77C247.046 429.795 247.118 429.803 247.188 429.792C247.258 429.781 247.325 429.752 247.38 429.708C247.435 429.665 247.477 429.608 247.502 429.544C247.528 429.479 247.535 429.409 247.524 429.341C245.286 415.659 245.883 402.617 249.172 389.784C252.633 376.911 258.292 365.16 265.981 354.841C273.673 344.537 283.424 335.746 294.968 328.722C306.472 321.534 319.041 316.85 333.104 314.677C333.331 314.641 333.473 314.435 333.439 314.227C333.43 314.16 333.403 314.096 333.36 314.042C333.317 313.988 333.262 313.947 333.196 313.921C333.131 313.896 333.059 313.889 332.991 313.899Z" fill="rgb(255,255,255)" fill-rule="evenodd" />
					<path id="矢量 471" d="M280.526 223.337C277.036 223.085 273.864 222.21 270.895 220.722C267.926 219.192 265.356 217.214 263.257 214.846C261.159 212.478 259.527 209.712 258.409 206.634C257.334 203.561 256.914 200.378 257.172 196.99C257.174 196.972 257.171 196.955 257.163 196.939C257.155 196.923 257.142 196.909 257.129 196.9C257.114 196.89 257.096 196.884 257.077 196.883C257.061 196.881 257.044 196.885 257.028 196.892C257.013 196.899 256.998 196.911 256.989 196.925C256.979 196.939 256.974 196.955 256.972 196.971C256.712 200.361 255.79 203.446 254.218 206.328C252.685 209.217 250.672 211.715 248.236 213.755C245.798 215.795 242.953 217.382 239.788 218.467C236.624 219.512 233.35 219.921 229.861 219.668C229.807 219.668 229.758 219.709 229.754 219.761C229.75 219.816 229.792 219.86 229.845 219.865C233.332 220.117 236.506 221.013 239.475 222.543C242.447 224.031 245.018 225.989 247.117 228.357C249.215 230.728 250.826 233.489 251.902 236.566C253.019 239.644 253.461 242.824 253.202 246.216C253.2 246.233 253.203 246.249 253.21 246.265C253.218 246.28 253.229 246.293 253.244 246.302C253.258 246.312 253.275 246.318 253.293 246.319C253.311 246.32 253.328 246.317 253.343 246.31C253.36 246.302 253.372 246.291 253.382 246.277C253.392 246.263 253.398 246.247 253.399 246.23C253.659 242.838 254.559 239.755 256.091 236.869C257.665 233.983 259.699 231.486 262.135 229.443C264.573 227.403 267.413 225.837 270.579 224.792C273.746 223.707 277.021 223.277 280.507 223.529C280.564 223.533 280.61 223.492 280.613 223.44C280.615 223.424 280.613 223.407 280.605 223.392C280.598 223.377 280.587 223.363 280.574 223.354C280.559 223.345 280.542 223.338 280.525 223.337L280.526 223.337Z" fill="rgb(255,255,255)" fill-rule="evenodd" />
				</g>
			</g>
			<path id="矢量 481" d="M1055.41 406.812C1056.56 411.219 1055.95 415.085 1053.61 418.428C1051.27 421.731 1047.82 423.377 1043.26 423.377L1042.29 423.377C1037.77 423.377 1034.26 422.028 1031.74 419.338C1029.25 416.649 1027.38 412.702 1026.11 407.487L1016.12 372.036L948.986 372.036L932.876 407.487C930.515 412.702 927.891 416.649 925.006 419.338C922.16 422.028 918.467 423.377 913.947 423.377L912.978 423.377C908.378 423.377 905.189 421.731 903.413 418.428C901.678 415.085 901.758 411.219 903.635 406.812L975.051 249.801C978.744 241.774 985 237.756 993.839 237.756L994.444 237.756C1003.28 237.756 1008.85 241.774 1011.13 249.801L1055.41 406.812ZM1103.82 419.829C1106.4 417.426 1107.89 414.011 1108.28 409.563L1121.92 251.57C1122.3 247.133 1121.4 243.727 1119.22 241.365C1117.1 238.962 1113.83 237.756 1109.43 237.756L1108.94 237.756C1104.54 237.756 1101.05 238.962 1098.45 241.365C1095.91 243.727 1094.46 247.133 1094.07 251.57L1080.43 409.563C1080.05 414.011 1080.91 417.426 1083.05 419.829C1085.23 422.191 1088.52 423.377 1092.92 423.377L1093.41 423.377C1097.8 423.377 1101.28 422.191 1103.82 419.829ZM990.423 280.847L1008.45 344.836L961.346 344.836L990.423 280.847Z" fill="rgb(77,83,232)" fill-rule="evenodd" />
		</g>
	</g>
</svg>
