<svg viewBox="0 0 1200 640" xmlns="http://www.w3.org/2000/svg" xmlns:xlink="http://www.w3.org/1999/xlink" width="1200.000000" height="640.000000" fill="none" customFrame="#000000">
	<defs>
		<linearGradient id="paint_linear_0" x1="167.074615" x2="272.724243" y1="355.346008" y2="264.958588" gradientUnits="userSpaceOnUse">
			<stop stop-color="rgb(33,123,254)" offset="0" stop-opacity="1" />
			<stop stop-color="rgb(7,142,251)" offset="0.270000011" stop-opacity="1" />
			<stop stop-color="rgb(161,144,255)" offset="0.77700001" stop-opacity="1" />
			<stop stop-color="rgb(189,153,254)" offset="1" stop-opacity="1" />
		</linearGradient>
		<linearGradient id="paint_linear_1" x1="167.067184" x2="272.716858" y1="355.347443" y2="264.959991" gradientUnits="userSpaceOnUse">
			<stop stop-color="rgb(33,123,254)" offset="0" stop-opacity="1" />
			<stop stop-color="rgb(7,142,251)" offset="0.270000011" stop-opacity="1" />
			<stop stop-color="rgb(161,144,255)" offset="0.77700001" stop-opacity="1" />
			<stop stop-color="rgb(189,153,254)" offset="1" stop-opacity="1" />
		</linearGradient>
	</defs>
	<g id="组合 318">
		<rect id="image 31" width="1200.000000" height="640.000000" x="0.000000" y="0.000000" rx="57.000000" fill="rgb(241,255,242)" />
		<g id="组合 310">
			<path id="矢量 471" d="M155.077 203L265.341 203C300.178 203 328.418 230.832 328.418 265.165L328.418 373.835C328.418 408.168 300.178 436 265.341 436L155.077 436C120.24 436 92 408.168 92 373.835L92 265.165C92 230.832 120.24 203 155.077 203Z" fill="rgb(9,0,23)" fill-rule="evenodd" />
			<path id="矢量 471" d="M283.495 314.857C272.924 316.513 262.848 316.071 252.933 313.635C242.987 311.076 233.908 306.888 225.947 301.194C217.986 295.501 211.127 288.284 205.574 279.77C200.148 271.236 196.594 261.922 194.915 251.515C194.906 251.461 194.883 251.41 194.849 251.368C194.815 251.326 194.768 251.294 194.718 251.274C194.665 251.255 194.609 251.249 194.556 251.258C194.503 251.266 194.453 251.287 194.412 251.321C194.37 251.354 194.339 251.397 194.319 251.446C194.301 251.495 194.295 251.548 194.304 251.6C195.983 262.008 195.471 271.958 192.872 281.75C190.403 291.532 186.217 300.469 180.441 308.316C174.664 316.162 167.341 322.921 158.702 328.394C150.043 333.741 140.592 337.244 130.021 338.901C129.863 338.936 129.746 339.095 129.771 339.253C129.798 339.422 129.958 339.527 130.119 339.502C140.679 337.846 150.776 338.35 160.722 340.911C170.647 343.344 179.716 347.469 187.677 353.163C195.641 358.866 202.433 366.083 207.859 374.628C213.414 383.141 217.03 392.435 218.71 402.853C218.719 402.905 218.741 402.953 218.775 402.994C218.808 403.035 218.852 403.066 218.902 403.086C218.951 403.105 219.005 403.11 219.058 403.102C219.11 403.094 219.16 403.071 219.202 403.038C219.243 403.005 219.275 402.962 219.294 402.913C219.313 402.864 219.319 402.81 219.31 402.759C217.629 392.341 218.078 382.41 220.548 372.639C223.147 362.837 227.397 353.889 233.171 346.032C238.948 338.186 246.27 331.492 254.94 326.143C263.579 320.671 273.019 317.104 283.58 315.449C283.75 315.422 283.857 315.265 283.832 315.106C283.825 315.055 283.804 315.007 283.772 314.966C283.74 314.925 283.698 314.893 283.649 314.874C283.6 314.854 283.546 314.849 283.495 314.857Z" fill="rgb(255,255,255)" fill-rule="evenodd" />
			<path id="矢量 471" d="M283.495 314.855C272.924 316.511 262.848 316.069 252.933 313.633C242.987 311.074 233.908 306.886 225.947 301.192C217.986 295.499 211.127 288.282 205.574 279.768C200.148 271.234 196.594 261.92 194.915 251.513C194.906 251.459 194.883 251.408 194.849 251.366C194.815 251.324 194.768 251.292 194.718 251.272C194.665 251.253 194.609 251.247 194.556 251.256C194.503 251.264 194.453 251.285 194.412 251.319C194.37 251.352 194.339 251.395 194.319 251.444C194.301 251.493 194.295 251.546 194.304 251.598C195.983 262.006 195.471 271.956 192.872 281.748C190.403 291.53 186.217 300.467 180.441 308.314C174.664 316.16 167.341 322.919 158.702 328.392C150.043 333.739 140.592 337.242 130.021 338.899C129.863 338.934 129.746 339.093 129.771 339.251C129.798 339.42 129.958 339.525 130.119 339.5C140.679 337.844 150.776 338.348 160.722 340.909C170.647 343.342 179.716 347.467 187.677 353.161C195.641 358.864 202.433 366.081 207.859 374.626C213.414 383.139 217.03 392.433 218.71 402.851C218.719 402.903 218.741 402.951 218.775 402.992C218.808 403.033 218.852 403.064 218.902 403.084C218.951 403.103 219.005 403.108 219.058 403.1C219.11 403.092 219.16 403.069 219.202 403.036C219.243 403.003 219.275 402.96 219.294 402.911C219.313 402.862 219.319 402.808 219.31 402.757C217.629 392.339 218.078 382.408 220.548 372.637C223.147 362.835 227.397 353.887 233.171 346.03C238.948 338.184 246.27 331.49 254.94 326.141C263.579 320.669 273.019 317.102 283.58 315.447C283.75 315.42 283.857 315.263 283.832 315.104C283.825 315.053 283.804 315.005 283.772 314.964C283.74 314.923 283.698 314.891 283.649 314.872C283.6 314.852 283.546 314.847 283.495 314.855Z" fill="url(#paint_linear_0)" fill-rule="evenodd" />
			<path id="矢量 471" d="M244.102 245.897C241.481 245.705 239.099 245.039 236.869 243.906C234.64 242.741 232.709 241.235 231.133 239.432C229.557 237.629 228.332 235.523 227.492 233.179C226.685 230.839 226.369 228.415 226.564 225.835C226.565 225.822 226.563 225.809 226.557 225.797C226.551 225.785 226.541 225.774 226.531 225.767C226.52 225.759 226.506 225.755 226.492 225.754C226.48 225.753 226.467 225.756 226.455 225.761C226.444 225.766 226.433 225.775 226.426 225.786C226.418 225.797 226.415 225.809 226.413 225.821C226.218 228.402 225.525 230.751 224.345 232.945C223.193 235.146 221.682 237.048 219.852 238.601C218.022 240.154 215.885 241.362 213.508 242.189C211.132 242.985 208.673 243.296 206.053 243.104C206.012 243.104 205.976 243.135 205.973 243.174C205.969 243.216 206.001 243.25 206.041 243.253C208.66 243.445 211.043 244.127 213.273 245.292C215.505 246.426 217.436 247.916 219.012 249.719C220.588 251.525 221.798 253.627 222.606 255.97C223.444 258.314 223.776 260.735 223.582 263.318C223.58 263.331 223.583 263.344 223.588 263.356C223.594 263.367 223.602 263.377 223.614 263.384C223.624 263.392 223.637 263.396 223.65 263.396C223.664 263.397 223.676 263.395 223.688 263.389C223.701 263.384 223.71 263.375 223.717 263.365C223.725 263.354 223.729 263.341 223.73 263.329C223.925 260.746 224.601 258.398 225.751 256.201C226.934 254.004 228.461 252.102 230.291 250.546C232.121 248.993 234.254 247.801 236.632 247.005C239.01 246.178 241.47 245.852 244.088 246.044C244.13 246.046 244.165 246.015 244.168 245.976C244.169 245.963 244.167 245.95 244.161 245.939C244.156 245.928 244.148 245.917 244.138 245.91C244.127 245.903 244.114 245.898 244.101 245.897L244.102 245.897Z" fill="rgb(255,255,255)" fill-rule="evenodd" />
			<path id="矢量 471" d="M244.094 245.897C241.473 245.705 239.091 245.039 236.861 243.906C234.632 242.741 232.702 241.235 231.125 239.432C229.55 237.629 228.324 235.523 227.485 233.179C226.677 230.839 226.362 228.415 226.556 225.835C226.557 225.822 226.555 225.809 226.549 225.797C226.543 225.785 226.533 225.774 226.523 225.767C226.512 225.759 226.499 225.755 226.484 225.754C226.472 225.753 226.459 225.756 226.447 225.761C226.436 225.766 226.425 225.775 226.418 225.786C226.41 225.797 226.407 225.809 226.405 225.821C226.21 228.402 225.518 230.751 224.337 232.945C223.186 235.146 221.674 237.048 219.844 238.601C218.014 240.154 215.877 241.362 213.5 242.189C211.124 242.985 208.665 243.296 206.045 243.104C206.005 243.104 205.968 243.135 205.965 243.174C205.962 243.216 205.993 243.25 206.034 243.253C208.652 243.445 211.035 244.127 213.266 245.292C215.497 246.426 217.428 247.916 219.005 249.719C220.58 251.525 221.79 253.627 222.598 255.97C223.436 258.314 223.768 260.735 223.574 263.318C223.573 263.331 223.575 263.344 223.58 263.356C223.586 263.367 223.595 263.377 223.606 263.384C223.616 263.392 223.629 263.396 223.643 263.396C223.656 263.397 223.669 263.395 223.68 263.389C223.693 263.384 223.702 263.375 223.71 263.365C223.717 263.354 223.722 263.341 223.722 263.329C223.917 260.746 224.593 258.398 225.744 256.201C226.926 254.004 228.454 252.102 230.283 250.546C232.113 248.993 234.246 247.801 236.624 247.005C239.002 246.178 241.462 245.852 244.08 246.044C244.122 246.046 244.157 246.015 244.16 245.976C244.161 245.963 244.159 245.95 244.153 245.939C244.149 245.928 244.14 245.917 244.13 245.91C244.119 245.903 244.106 245.898 244.093 245.897L244.094 245.897Z" fill="url(#paint_linear_1)" fill-rule="evenodd" />
			<g id="组合 308">
				<path id="矢量 466" d="M382.914 407.601L404.148 236.77L472.699 236.77C488.086 236.922 499.895 240.144 508.128 246.437C516.36 252.731 520.476 261.944 520.476 274.075C520.476 275.288 520.322 277.563 520.014 280.899L519.091 289.088C517.245 301.978 511.397 311.532 501.55 317.749C508.166 320.328 513.167 324.271 516.552 329.578C519.937 334.886 521.63 341.255 521.63 348.685C521.63 350.96 521.553 352.704 521.399 353.917L520.245 363.471C518.399 377.575 512.205 388.455 501.665 396.114C491.125 403.772 476.776 407.601 458.619 407.601L382.914 407.601ZM464.389 308.878C480.854 308.575 490.086 302.13 492.086 289.543L493.241 280.445C494.318 267.706 486.701 261.185 470.39 260.882L428.383 260.882L422.382 308.878L464.389 308.878ZM461.851 383.034C470.929 382.882 478.084 381.138 483.316 377.802C488.547 374.466 491.702 369.84 492.779 363.926L493.933 354.145C494.702 347.17 492.894 341.824 488.509 338.109C484.124 334.393 477.315 332.459 468.082 332.308L419.613 332.308L413.15 383.034L461.851 383.034ZM625.725 382.579L638.188 280.899L664.731 280.899L649.036 407.601L591.103 407.601C559.252 407.601 543.326 393.194 543.326 364.381C543.326 360.893 543.557 357.102 544.018 353.008L553.02 280.899L579.563 280.899L570.561 353.69C570.254 355.661 570.1 358.391 570.1 361.879C570.1 369.765 571.985 375.224 575.754 378.257C579.524 381.29 585.641 382.807 594.104 382.807L625.725 382.579ZM695.66 263.839L699.122 236.543L729.355 236.543L725.894 263.839L695.66 263.839ZM706.277 407.601L679.734 407.601L695.66 280.899L722.201 280.899L706.277 407.601ZM741.128 335.72C745.592 299.173 765.437 280.899 800.679 280.899L830.914 280.899L836.917 232.221L863.458 232.221L841.762 407.601L786.137 407.601C754.286 407.601 738.36 393.194 738.36 364.381C738.36 360.893 738.593 357.102 739.052 353.008L741.128 335.72ZM818.215 383.261L827.912 304.784L797.677 304.784C780.29 304.784 770.367 314.869 767.902 335.037L765.593 353.69C765.289 356.723 765.134 358.922 765.134 360.287C765.134 375.603 773.135 383.261 789.139 383.261L818.215 383.261Z" fill="rgb(0,0,0)" fill-rule="nonzero" />
			</g>
			<g id="组合 309">
				<path id="矢量 465" d="M858.154 407.568L977.779 231.436L978.16 231.436L1009.54 407.568L979.799 407.568L973.873 371.8L914.562 371.8L890.585 407.568L858.154 407.568ZM931.188 347.093L969.593 347.093L965.935 325.268C965.144 320.706 964.452 316.276 963.845 311.978C963.237 307.68 962.87 302.632 962.743 296.833C959.883 302.541 957.121 307.558 954.451 311.883C951.782 316.209 948.886 320.67 945.75 325.268L931.188 347.093ZM1033.75 407.568L1077.01 237.383L1109 237.383L1065.74 407.568L1033.75 407.568Z" fill="rgb(0,57,255)" fill-rule="nonzero" />
			</g>
		</g>
	</g>
</svg>
