<svg viewBox="0 0 1245 351.59" xmlns="http://www.w3.org/2000/svg" xmlns:xlink="http://www.w3.org/1999/xlink" width="1245.000000" height="351.589844" fill="none" customFrame="#000000">
	<defs>
		<linearGradient id="paint_linear_2" x1="1275.50281" x2="950.126953" y1="142.671356" y2="252.571106" gradientUnits="userSpaceOnUse">
			<stop stop-color="rgb(0,57,255)" offset="0" stop-opacity="0.949999988" />
			<stop stop-color="rgb(99,131,254)" offset="0.999999702" stop-opacity="1" />
		</linearGradient>
		<linearGradient id="paint_linear_3" x1="138.595581" x2="109.175972" y1="44.1452713" y2="573.948242" gradientUnits="userSpaceOnUse">
			<stop stop-color="rgb(32,117,255)" offset="0" stop-opacity="1" />
			<stop stop-color="rgb(118,135,254)" offset="0.494790643" stop-opacity="1" />
			<stop stop-color="rgb(37,170,251)" offset="1" stop-opacity="1" />
		</linearGradient>
	</defs>
	<g id="组合 304">
		<g id="组合 299">
			<g id="组合 300">
				<path id="矢量 465" d="M932 312L1081.26 89L1081.74 89L1120.89 312L1083.79 312L1076.39 266.714L1002.39 266.714L972.462 312L932 312ZM1023.13 235.433L1071.05 235.433L1066.49 207.8C1065.5 202.024 1064.63 196.416 1063.87 190.974C1063.12 185.532 1062.66 179.141 1062.5 171.799C1058.94 179.026 1055.49 185.378 1052.16 190.854C1048.83 196.331 1045.21 201.979 1041.3 207.8L1023.13 235.433ZM1151.1 312L1205.08 96.5302L1245 96.5302L1191.02 312L1151.1 312Z" fill="url(#paint_linear_2)" fill-rule="nonzero" />
			</g>
			<g id="组合 301">
				<path id="矢量 466" d="M339 312.048L365.496 95.76L451.032 95.76C470.232 95.952 484.968 100.032 495.24 108C505.512 115.968 510.648 127.632 510.648 142.992C510.648 144.528 510.456 147.408 510.072 151.632L508.92 162C506.616 178.32 499.32 190.416 487.032 198.288C495.288 201.552 501.528 206.544 505.752 213.264C509.976 219.984 512.088 228.048 512.088 237.456C512.088 240.336 511.992 242.544 511.8 244.08L510.36 256.176C508.056 274.032 500.328 287.808 487.176 297.504C474.024 307.2 456.12 312.048 433.464 312.048L339 312.048ZM440.664 187.056C461.208 186.672 472.728 178.512 475.224 162.576L476.664 151.056C478.008 134.928 468.504 126.672 448.152 126.288L395.736 126.288L388.248 187.056L440.664 187.056ZM437.496 280.944C448.824 280.752 457.752 278.544 464.28 274.32C470.808 270.096 474.744 264.24 476.088 256.752L477.528 244.368C478.488 235.536 476.232 228.768 470.76 224.064C465.288 219.36 456.792 216.912 445.272 216.72L384.792 216.72L376.728 280.944L437.496 280.944ZM641.976 280.368L657.528 151.632L690.648 151.632L671.064 312.048L598.776 312.048C559.032 312.048 539.16 293.808 539.16 257.328C539.16 252.912 539.448 248.112 540.024 242.928L551.256 151.632L584.376 151.632L573.144 243.792C572.76 246.288 572.568 249.744 572.568 254.16C572.568 264.144 574.92 271.056 579.624 274.896C584.328 278.736 591.96 280.656 602.52 280.656L641.976 280.368ZM729.24 130.032L733.56 95.472L771.288 95.472L766.968 130.032L729.24 130.032ZM742.488 312.048L709.368 312.048L729.24 151.632L762.36 151.632L742.488 312.048ZM785.976 221.04C791.544 174.768 816.312 151.632 860.28 151.632L898.008 151.632L905.496 90L938.616 90L911.544 312.048L842.136 312.048C802.392 312.048 782.52 293.808 782.52 257.328C782.52 252.912 782.808 248.112 783.384 242.928L785.976 221.04ZM882.168 281.232L894.264 181.872L856.536 181.872C834.84 181.872 822.456 194.64 819.384 220.176L816.504 243.792C816.12 247.632 815.928 250.416 815.928 252.144C815.928 271.536 825.912 281.232 845.88 281.232L882.168 281.232Z" fill="rgb(0,0,0)" fill-rule="nonzero" />
			</g>
			<g id="组合 302">
				<path id="矢量 467" d="M201.477 52.5165C199.293 54.7461 197.606 57.4088 196.525 60.3309L189.864 78.9316L185.152 64.6981C183.603 60.2567 181.099 56.2049 177.816 52.8248C174.533 49.4448 170.55 46.8178 166.143 45.1269L149.896 39.7893L161.106 37.0396C166.241 35.5117 170.959 32.8383 174.9 29.2228C178.842 25.6073 181.903 21.1448 183.852 16.1745L189.864 0L198.638 21.3504C199.833 23.9622 201.541 26.3095 203.662 28.254C205.783 30.1985 208.273 31.7008 210.985 32.6725L229.67 39.3041L209.198 47.3913C206.291 48.5407 203.66 50.287 201.477 52.5165ZM189.124 254.622C181.143 262.818 174.995 272.603 171.085 283.333L146.227 351.59L129.004 299.508C123.463 282.569 114.072 267.131 101.56 254.395C89.0482 241.659 73.7535 231.967 56.8658 226.076L0 206.019L41.106 193.726C59.9427 188.141 77.2392 178.323 91.6621 165.031C106.085 151.738 117.249 135.326 124.293 117.059L146.227 60.4482L178.721 138.895C182.786 148.789 188.914 157.711 196.701 165.072C204.487 172.433 213.754 178.065 223.889 181.595L292.453 206.019L217.39 235.78C206.738 240.004 197.105 246.426 189.124 254.622Z" fill="url(#paint_linear_3)" fill-rule="evenodd" />
			</g>
		</g>
	</g>
</svg>
